<svg xmlns="http://www.w3.org/2000/svg" viewBox="0 0 199 176.23">
  <path d="M163.57,114.61c-1.49-7.21-4.86-12.87-8.28-17.91-.02-.03-.04-.06-.07-.09-7.22-10.01-17.66-15.3-30.19-15.3-6.35,0-13.2,1.4-20,4.06-8.16-17.1-20.91-26.87-37.09-28.35-1.58-.13-3.19-.2-4.77-.2-8.85,0-17.46,2.02-25.59,6-1.7.83-2.59,2.75-2.12,4.58.45,1.78,2.05,3.01,3.87,3.01.06,0,.12,0,.18,0l11.55-.52c.47-.02.94-.03,1.4-.03,10.49,0,21.28,5.48,29.6,15.03,3.9,4.48,7.05,9.65,9.93,16.28.88,2.02,2.87,4.59,5.58,5.17.56.12,1.16.18,1.78.18,1.74,0,3.55-.46,4.98-1.27,5.88-3.31,12.12-4.99,18.56-4.99s13.17,1.85,19.05,5.35c4.9,2.92,9.32,6.67,14.76,12.53.78.84,1.85,1.28,2.93,1.28.62,0,1.25-.14,1.83-.44,1.6-.82,2.45-2.61,2.09-4.36Z" fill="#1a1a1a"/>
</svg>
